<svg width="10" height="10" viewBox="0 0 10 10" fill="none" xmlns="http://www.w3.org/2000/svg">
<path fill-rule="evenodd" clip-rule="evenodd" d="M0.18021 0.18021C0.237189 0.123086 0.304879 0.0777638 0.379402 0.0468404C0.453924 0.015917 0.533815 0 0.614499 0C0.695182 0 0.775074 0.015917 0.849596 0.0468404C0.924118 0.0777638 0.991808 0.123086 1.04879 0.18021L5.00016 4.13281L8.95153 0.18021C9.06672 0.065029 9.22293 0.000321106 9.38582 0.000321106C9.54871 0.000321106 9.70493 0.065029 9.82011 0.18021C9.93529 0.29539 10 0.451609 10 0.614499C10 0.777389 9.93529 0.933607 9.82011 1.04879L5.86751 5.00016L9.82011 8.95153C9.93529 9.06672 10 9.22293 10 9.38582C10 9.54871 9.93529 9.70493 9.82011 9.82011C9.70493 9.93529 9.54871 10 9.38582 10C9.22293 10 9.06672 9.93529 8.95153 9.82011L5.00016 5.86751L1.04879 9.82011C0.991756 9.87714 0.92405 9.92238 0.849535 9.95325C0.775019 9.98411 0.695154 10 0.614499 10C0.533844 10 0.453978 9.98411 0.379463 9.95325C0.304947 9.92238 0.237241 9.87714 0.18021 9.82011C0.123178 9.76308 0.077938 9.69537 0.0470727 9.62086C0.0162074 9.54634 0.000321106 9.46648 0.000321106 9.38582C0.000321107 9.30517 0.0162074 9.2253 0.0470727 9.15079C0.077938 9.07627 0.123178 9.00857 0.18021 8.95153L4.13281 5.00016L0.18021 1.04879C0.123086 0.991808 0.0777639 0.924118 0.0468405 0.849596C0.0159171 0.775073 0 0.695182 0 0.614499C0 0.533815 0.0159171 0.453924 0.0468405 0.379401C0.0777639 0.304879 0.123086 0.237189 0.18021 0.18021Z" fill="white" fill-opacity="0.7"/>
</svg>
