<svg width="11" height="11" viewBox="0 0 11 11" fill="none" xmlns="http://www.w3.org/2000/svg">
<path d="M8.74399 0.614322L5.19239 4.16593L1.64078 0.614322C1.41006 0.383598 1.03584 0.383598 0.805112 0.614322L0.387276 1.03216C0.156553 1.26288 0.156553 1.6371 0.387277 1.86783L3.93888 5.41943L0.387277 8.97104C0.156553 9.20176 0.156553 9.57599 0.387276 9.80671L0.805112 10.2245C1.03584 10.4553 1.41006 10.4553 1.64078 10.2245L5.19239 6.67294L8.74399 10.2245C8.97472 10.4553 9.34894 10.4553 9.57966 10.2245L9.9975 9.80671C10.2282 9.57599 10.2282 9.20176 9.9975 8.97104L6.44589 5.41943L9.9975 1.86783C10.2282 1.6371 10.2282 1.26288 9.9975 1.03216L9.57966 0.614322C9.34894 0.383599 8.97472 0.383599 8.74399 0.614322Z" fill="white"/>
</svg>
