<svg width="22" height="22" viewBox="0 0 22 22" fill="none" xmlns="http://www.w3.org/2000/svg">
<path d="M0 5C0 2.23858 2.23858 0 5 0H17C19.7614 0 22 2.23858 22 5V17C22 19.7614 19.7614 22 17 22H5C2.23858 22 0 19.7614 0 17V5Z" fill="#5AE9C8"/>
<path d="M16.6745 6.32296C16.5691 6.21786 16.4435 6.13512 16.3053 6.07967C16.1672 6.02422 16.0192 5.9972 15.8704 6.00023C15.7215 6.00326 15.5748 6.03628 15.439 6.09731C15.3032 6.15835 15.1811 6.24614 15.08 6.35544L9.95237 12.8886L6.8622 9.79699C6.65229 9.60139 6.37466 9.49491 6.08779 9.49997C5.80091 9.50503 5.52721 9.62125 5.32433 9.82413C5.12145 10.027 5.00523 10.3007 5.00017 10.5876C4.99511 10.8745 5.10159 11.1521 5.29719 11.362L9.20382 15.2701C9.30906 15.3752 9.43438 15.4579 9.57231 15.5135C9.71024 15.5691 9.85794 15.5963 10.0066 15.5935C10.1553 15.5908 10.3019 15.5581 10.4377 15.4975C10.5734 15.4368 10.6956 15.3495 10.7969 15.2406L16.6908 7.87321C16.8917 7.66429 17.0027 7.38492 17 7.09507C16.9972 6.80522 16.8809 6.52801 16.676 6.32296H16.6745Z" fill="black"/>
</svg>
