<svg width="12" height="13" viewBox="0 0 12 13" fill="none" xmlns="http://www.w3.org/2000/svg">
<path d="M2.8003 13H2.40034C2.069 13 1.80041 12.7272 1.80041 12.3906L1.80041 3.25H0.600535C0.0664163 3.25 -0.20043 2.59241 0.176305 2.20972L2.17609 0.178471C2.41039 -0.0594902 2.79025 -0.0594902 3.02453 0.178471L5.02432 2.20972C5.39958 2.59096 5.13645 3.25 4.60011 3.25H3.40024L3.40024 12.3906C3.40024 12.7272 3.13164 13 2.8003 13ZM8.5999 0.609375V9.75H7.40003C6.86723 9.75 6.59811 10.4067 6.9758 10.7903L8.97558 12.8215C9.20988 13.0595 9.58974 13.0595 9.82402 12.8215L11.8238 10.7903C12.1994 10.4087 11.9355 9.75 11.3996 9.75H10.1997V0.609375C10.1997 0.272822 9.93113 0 9.59979 0H9.19983C8.86849 0 8.5999 0.272822 8.5999 0.609375Z" fill="white"/>
</svg>
