<svg width="6" height="11" viewBox="0 0 6 11" fill="none" xmlns="http://www.w3.org/2000/svg">
<path fill-rule="evenodd" clip-rule="evenodd" d="M0.125877 0.12428C0.0859756 0.163576 0.0543189 0.210257 0.0327187 0.261651C0.0111184 0.313045 0 0.368141 0 0.423784C0 0.479426 0.0111184 0.534522 0.0327187 0.585916C0.0543189 0.63731 0.0859756 0.683991 0.125877 0.723287L4.96493 5.50011L0.125877 10.2769C0.045423 10.3564 0.000225067 10.4641 0.000225067 10.5764C0.000225067 10.6888 0.045423 10.7965 0.125877 10.8759C0.206331 10.9554 0.315449 11 0.429228 11C0.543006 11 0.652125 10.9554 0.732579 10.8759L5.87412 5.79961C5.91402 5.76032 5.94568 5.71364 5.96728 5.66224C5.98888 5.61085 6 5.55575 6 5.50011C6 5.44447 5.98888 5.38937 5.96728 5.33798C5.94568 5.28659 5.91402 5.2399 5.87412 5.20061L0.732579 0.12428C0.692779 0.0848852 0.645497 0.0536295 0.593443 0.0323035C0.541389 0.0109774 0.485585 0 0.429228 0C0.37287 0 0.317067 0.0109774 0.265013 0.0323035C0.212959 0.0536295 0.165678 0.0848852 0.125877 0.12428Z" fill="white" fill-opacity="0.8"/>
</svg>
