<svg width="23" height="23" viewBox="0 0 23 23" fill="none" xmlns="http://www.w3.org/2000/svg">
<path d="M16.7924 14.8684C18.1407 12.9688 18.7446 10.6136 18.4832 8.27409C18.2219 5.93455 17.1147 3.78315 15.383 2.25032C13.6513 0.717485 11.423 -0.0837417 9.14377 0.00693533C6.86453 0.0976123 4.7025 1.07351 3.09022 2.73937C1.47794 4.40524 0.534312 6.63823 0.44812 8.9916C0.361928 11.345 1.13953 13.6452 2.62536 15.432C4.11118 17.2188 6.19565 18.3605 8.46175 18.6287C10.7278 18.8968 13.0084 18.2716 14.8473 16.8782H14.8459C14.8867 16.9357 14.9322 16.9908 14.9823 17.0435L20.343 22.5785C20.6041 22.8482 20.9583 22.9999 21.3277 23C21.697 23.0001 22.0513 22.8488 22.3126 22.5792C22.5739 22.3096 22.7207 21.9439 22.7209 21.5626C22.721 21.1812 22.5744 20.8154 22.3133 20.5456L16.9526 15.0107C16.9028 14.9586 16.8493 14.912 16.7924 14.8684ZM17.1517 9.34205C17.1517 10.3804 16.9536 11.4086 16.5687 12.368C16.1839 13.3273 15.6198 14.199 14.9086 14.9332C14.1975 15.6674 13.3533 16.2499 12.4241 16.6472C11.495 17.0446 10.4992 17.2491 9.49349 17.2491C8.4878 17.2491 7.49196 17.0446 6.56282 16.6472C5.63369 16.2499 4.78946 15.6674 4.07833 14.9332C3.3672 14.199 2.8031 13.3273 2.41824 12.368C2.03338 11.4086 1.8353 10.3804 1.8353 9.34205C1.8353 7.24497 2.64214 5.23377 4.07833 3.75091C5.51452 2.26805 7.46241 1.43499 9.49349 1.43499C11.5246 1.43499 13.4725 2.26805 14.9086 3.75091C16.3448 5.23377 17.1517 7.24497 17.1517 9.34205Z" fill="white"/>
</svg>
