<svg width="25" height="19" viewBox="0 0 25 19" fill="none" xmlns="http://www.w3.org/2000/svg">
<path d="M17.4999 16.0654L0.681644 16.0654C0.43956 16.0654 0.243332 16.26 0.243332 16.5V17.5865C0.243332 17.8265 0.43956 18.0211 0.681644 18.0211L17.4999 18.0211C17.742 18.0211 17.9382 17.8265 17.9382 17.5865V16.5C17.9382 16.26 17.742 16.0654 17.4999 16.0654ZM24.5 7.99998L0.681648 7.99998C0.439564 7.99998 0.243332 8.19455 0.243332 8.43459V9.52111C0.243332 9.76115 0.439564 9.95572 0.681648 9.95572H6.3797L24.5 9.95572C24.7421 9.95572 24.9383 9.76115 24.9383 9.52111V8.43459C24.9383 8.19455 24.7421 7.99998 24.5 7.99998ZM24.5617 -3.43323e-05L0.68055 -1.90735e-05C0.438465 -1.90735e-05 0.242233 0.19455 0.242233 0.434589V1.52111C0.242233 1.76115 0.438465 1.95572 0.68055 1.95572L24.5617 1.9557C24.8038 1.9557 25 1.76113 25 1.52109V0.434574C25 0.194534 24.8038 -3.43323e-05 24.5617 -3.43323e-05Z" fill="white"/>
</svg>
