<svg width="247" height="116" viewBox="0 0 247 116" fill="none" xmlns="http://www.w3.org/2000/svg">
<path d="M83.6406 21.1448C102.377 -14.0436 155.695 -0.896125 155.924 38.9689C156.061 62.8968 177.815 80.8713 201.34 76.495C240.533 69.2038 263.497 119.087 232.472 144.121C213.85 159.148 213.36 187.362 231.449 203.026C261.586 229.123 236.904 278.178 197.987 269.531C174.629 264.34 152.264 281.549 151.296 305.457C149.683 345.29 95.9409 356.579 78.4377 320.761C67.932 299.262 40.5339 292.506 21.2377 306.656C-10.9107 330.231 -53.2442 295.251 -36.1537 259.235C-25.8957 237.617 -37.6961 211.984 -60.7899 205.72C-99.2653 195.284 -98.3118 140.377 -59.4973 131.283C-36.1999 125.824 -23.5167 100.616 -33.018 78.6554C-48.8476 42.0672 -5.3252 8.57873 25.9853 33.2551C44.7786 48.0664 72.3947 42.2658 83.6406 21.1448Z" fill="#FFE587"/>
</svg>
