<svg width="12" height="12" viewBox="0 0 12 12" fill="none" xmlns="http://www.w3.org/2000/svg">
<path d="M6 4.31099e-06C9.31452 4.31099e-06 12 2.68549 12 6C12 9.31452 9.31452 12 6 12C2.68548 12 0 9.31452 0 6C0 2.68549 2.68548 4.31099e-06 6 4.31099e-06ZM8.75565 5.58871L5.47742 2.31049C5.25 2.08307 4.88226 2.08307 4.65726 2.31049L4.24597 2.72178C4.01855 2.9492 4.01855 3.31694 4.24597 3.54194L6.70403 6L4.24597 8.45807C4.01855 8.68549 4.01855 9.05323 4.24597 9.27823L4.65726 9.68952C4.88468 9.91694 5.25242 9.91694 5.47742 9.68952L8.75565 6.41129C8.98306 6.18388 8.98306 5.81613 8.75565 5.58871Z" fill="white" fill-opacity="0.8"/>
</svg>
