<svg width="15" height="15" viewBox="0 0 15 15" fill="none" xmlns="http://www.w3.org/2000/svg">
<path d="M0.254423 0.250382C0.174796 0.329819 0.11162 0.424188 0.0685151 0.528083C0.02541 0.631977 0.00322277 0.743356 0.00322277 0.85584C0.00322277 0.968324 0.02541 1.0797 0.0685151 1.1836C0.11162 1.28749 0.174796 1.38186 0.254423 1.4613L6.29097 7.5001L0.251003 13.5389C0.090449 13.6992 0.000160565 13.9168 2.13659e-07 14.1438C-7.91843e-05 14.2561 0.021971 14.3674 0.0648914 14.4712C0.107812 14.5751 0.170762 14.6695 0.250147 14.749C0.329533 14.8285 0.4238 14.8916 0.527566 14.9346C0.631332 14.9777 0.742565 14.9999 0.854913 15C1.08181 15.0002 1.29948 14.9102 1.46003 14.7498L7.5 8.7093L13.5383 14.7498C13.6988 14.9102 13.9165 15.0002 14.1434 15C14.3703 14.9998 14.5878 14.9095 14.7481 14.749C14.9085 14.5884 14.9985 14.3707 14.9983 14.1438C14.9981 13.9168 14.9078 13.6992 14.7473 13.5389L8.71074 7.5001L14.749 1.4613C14.9096 1.30095 14.9998 1.08338 15 0.856445C15.0002 0.629514 14.9102 0.411815 14.7499 0.251237C14.5895 0.0906596 14.372 0.000357849 14.1451 0.000197474C13.9182 3.7099e-05 13.7005 0.0900309 13.54 0.250382L7.50171 6.29089L1.46174 0.250382C1.3014 0.0900625 1.08395 0 0.857227 0C0.630501 0 0.414767 0.0900625 0.254423 0.250382Z" fill="white"/>
</svg>
