<svg width="15" height="21" viewBox="0 0 15 21" fill="none" xmlns="http://www.w3.org/2000/svg">
<path d="M0 2.5774C0 1.91435 0.263396 1.27846 0.732245 0.809607C1.20109 0.340758 1.83699 0.0773621 2.50004 0.0773621L12.5002 0.0773621C13.1633 0.0773621 13.7991 0.340758 14.268 0.809607C14.7368 1.27846 15.0002 1.91435 15.0002 2.5774V19.4527C15.0002 19.5657 14.9695 19.6767 14.9113 19.7736C14.8532 19.8706 14.7699 19.95 14.6702 20.0034C14.5706 20.0567 14.4583 20.082 14.3454 20.0766C14.2324 20.0712 14.1231 20.0353 14.029 19.9727L7.50012 16.4539L0.971266 19.9727C0.877146 20.0353 0.7678 20.0712 0.654875 20.0766C0.541949 20.082 0.429673 20.0567 0.330005 20.0034C0.230336 19.95 0.147007 19.8706 0.088894 19.7736C0.0307805 19.6767 5.84015e-05 19.5657 0 19.4527V2.5774ZM2.50004 1.32738C2.16851 1.32738 1.85057 1.45908 1.61614 1.6935C1.38172 1.92793 1.25002 2.24588 1.25002 2.5774V18.2852L7.15387 15.1826C7.25644 15.1143 7.37691 15.0779 7.50012 15.0779C7.62333 15.0779 7.7438 15.1143 7.84638 15.1826L13.7502 18.2852V2.5774C13.7502 2.24588 13.6185 1.92793 13.3841 1.6935C13.1497 1.45908 12.8317 1.32738 12.5002 1.32738H2.50004Z" fill="white"/>
<path d="M7.30017 5.40244C7.31845 5.36496 7.34689 5.33337 7.38225 5.31126C7.41761 5.28916 7.45847 5.27744 7.50018 5.27744C7.54188 5.27744 7.58274 5.28916 7.6181 5.31126C7.65346 5.33337 7.6819 5.36496 7.70018 5.40244L8.49269 7.00872C8.50873 7.04109 8.53232 7.06911 8.56148 7.09044C8.59063 7.11176 8.62449 7.12575 8.66019 7.13122L10.4352 7.38873C10.6165 7.41498 10.6902 7.63873 10.5577 7.76748L9.2752 9.01875C9.2495 9.04414 9.23029 9.07534 9.2192 9.10972C9.2081 9.14409 9.20545 9.18064 9.21145 9.21626L9.51396 10.9838C9.52075 11.0246 9.51603 11.0665 9.50033 11.1048C9.48462 11.1431 9.45856 11.1762 9.42505 11.2005C9.39155 11.2248 9.35195 11.2392 9.31068 11.2422C9.26941 11.2452 9.22813 11.2367 9.19145 11.2175L7.60393 10.3825C7.57204 10.3661 7.53668 10.3575 7.5008 10.3575C7.46492 10.3575 7.42956 10.3661 7.39767 10.3825L5.81015 11.2175C5.77351 11.2364 5.73238 11.2446 5.69132 11.2415C5.65025 11.2383 5.61088 11.2238 5.57758 11.1995C5.54428 11.1753 5.51836 11.1423 5.5027 11.1042C5.48704 11.0661 5.48226 11.0244 5.48889 10.9838L5.7914 9.21626C5.79756 9.18074 5.79511 9.14426 5.78423 9.10988C5.77335 9.07551 5.75438 9.04426 5.7289 9.01875L4.44138 7.76748C4.41188 7.73853 4.39104 7.70193 4.38118 7.66179C4.37132 7.62166 4.37283 7.57956 4.38555 7.54024C4.39827 7.50092 4.42169 7.46591 4.45319 7.43915C4.48469 7.41239 4.52302 7.39493 4.56388 7.38873L6.33891 7.13122C6.37461 7.12575 6.40847 7.11176 6.43762 7.09044C6.46678 7.06911 6.49037 7.04109 6.50641 7.00872L7.30017 5.40244Z" fill="white"/>
</svg>
