<svg width="20" height="21" viewBox="0 0 20 21" fill="none" xmlns="http://www.w3.org/2000/svg">
<path d="M10 18.8274C7.67936 18.8274 5.45376 17.9055 3.81282 16.2646C2.17187 14.6236 1.25 12.398 1.25 10.0774C1.25 7.75675 2.17187 5.53115 3.81282 3.89021C5.45376 2.24926 7.67936 1.32739 10 1.32739C12.3206 1.32739 14.5462 2.24926 16.1872 3.89021C17.8281 5.53115 18.75 7.75675 18.75 10.0774C18.75 12.398 17.8281 14.6236 16.1872 16.2646C14.5462 17.9055 12.3206 18.8274 10 18.8274ZM10 20.0774C12.6522 20.0774 15.1957 19.0238 17.0711 17.1485C18.9464 15.2731 20 12.7296 20 10.0774C20 7.42523 18.9464 4.88169 17.0711 3.00632C15.1957 1.13096 12.6522 0.0773926 10 0.0773926C7.34784 0.0773926 4.8043 1.13096 2.92893 3.00632C1.05357 4.88169 0 7.42523 0 10.0774C0 12.7296 1.05357 15.2731 2.92893 17.1485C4.8043 19.0238 7.34784 20.0774 10 20.0774Z" fill="white"/>
<path d="M5.35618 12.0361C5.49973 11.9533 5.67032 11.9308 5.83043 11.9737C5.99054 12.0166 6.12705 12.1213 6.20993 12.2649C6.59402 12.9301 7.14649 13.4825 7.81179 13.8665C8.47709 14.2505 9.23177 14.4526 9.99993 14.4524C10.7681 14.4526 11.5228 14.2505 12.1881 13.8665C12.8534 13.4825 13.4059 12.9301 13.7899 12.2649C13.8307 12.1932 13.8852 12.1304 13.9503 12.0799C14.0155 12.0293 14.09 11.9922 14.1695 11.9706C14.249 11.949 14.3321 11.9434 14.4138 11.954C14.4956 11.9646 14.5744 11.9913 14.6458 12.0325C14.7171 12.0738 14.7797 12.1287 14.8297 12.1942C14.8798 12.2596 14.9164 12.3344 14.9375 12.4141C14.9586 12.4937 14.9637 12.5768 14.9525 12.6585C14.9413 12.7401 14.9141 12.8188 14.8724 12.8899C14.3786 13.7452 13.6684 14.4554 12.8131 14.9491C11.9577 15.4428 10.9875 15.7026 9.99993 15.7024C9.01235 15.7026 8.04213 15.4428 7.18681 14.9491C6.33149 14.4554 5.62122 13.7452 5.12743 12.8899C5.04456 12.7463 5.0221 12.5758 5.065 12.4156C5.1079 12.2555 5.21264 12.119 5.35618 12.0361ZM8.74993 8.20239C8.74993 9.23739 8.18993 10.0774 7.49993 10.0774C6.80993 10.0774 6.24993 9.23739 6.24993 8.20239C6.24993 7.16739 6.80993 6.32739 7.49993 6.32739C8.18993 6.32739 8.74993 7.16739 8.74993 8.20239ZM13.7499 8.20239C13.7499 9.23739 13.1899 10.0774 12.4999 10.0774C11.8099 10.0774 11.2499 9.23739 11.2499 8.20239C11.2499 7.16739 11.8099 6.32739 12.4999 6.32739C13.1899 6.32739 13.7499 7.16739 13.7499 8.20239Z" fill="white"/>
</svg>
