<svg width="20" height="20" viewBox="0 0 20 20" fill="none" xmlns="http://www.w3.org/2000/svg">
<path fill-rule="evenodd" clip-rule="evenodd" d="M8.26087 15.2508C9.17881 15.2508 10.0878 15.07 10.9358 14.7188C11.7839 14.3675 12.5544 13.8526 13.2035 13.2035C13.8526 12.5544 14.3675 11.7839 14.7188 10.9358C15.07 10.0878 15.2508 9.17881 15.2508 8.26087C15.2508 7.34294 15.07 6.43399 14.7188 5.58593C14.3675 4.73786 13.8526 3.9673 13.2035 3.31822C12.5544 2.66914 11.7839 2.15426 10.9358 1.80298C10.0878 1.4517 9.17881 1.2709 8.26087 1.2709C6.40702 1.2709 4.62909 2.00734 3.31822 3.31822C2.00734 4.62909 1.2709 6.40702 1.2709 8.26087C1.2709 10.1147 2.00734 11.8927 3.31822 13.2035C4.62909 14.5144 6.40702 15.2508 8.26087 15.2508ZM16.5217 8.26087C16.5217 10.4518 15.6514 12.553 14.1022 14.1022C12.553 15.6514 10.4518 16.5217 8.26087 16.5217C6.06995 16.5217 3.96877 15.6514 2.41955 14.1022C0.870339 12.553 0 10.4518 0 8.26087C0 6.06995 0.870339 3.96877 2.41955 2.41955C3.96877 0.870339 6.06995 0 8.26087 0C10.4518 0 12.553 0.870339 14.1022 2.41955C15.6514 3.96877 16.5217 6.06995 16.5217 8.26087Z" fill="white"/>
<path d="M13.0435 14.7638C13.0796 14.813 13.1198 14.8601 13.1641 14.9052L17.8996 19.6395C18.1302 19.8702 18.4431 19.9999 18.7694 20C19.0956 20.0001 19.4086 19.8706 19.6394 19.6401C19.8702 19.4095 19.9999 19.0967 20 18.7705C20.0002 18.4443 19.8707 18.1314 19.64 17.9007L14.9045 13.1664C14.8606 13.1219 14.8133 13.0808 14.7631 13.0435C14.2811 13.7017 13.7012 14.2823 13.0435 14.765V14.7638Z" fill="white"/>
</svg>
