<svg width="20" height="21" viewBox="0 0 20 21" fill="none" xmlns="http://www.w3.org/2000/svg">
<path d="M10 6.01965C9.46714 6.01965 8.93949 6.12461 8.44718 6.32853C7.95487 6.53245 7.50755 6.83134 7.13075 7.20814C6.75395 7.58494 6.45506 8.03226 6.25114 8.52457C6.04722 9.01688 5.94226 9.54454 5.94226 10.0774C5.94226 10.6103 6.04722 11.1379 6.25114 11.6302C6.45506 12.1226 6.75395 12.5699 7.13075 12.9467C7.50755 13.3235 7.95487 13.6224 8.44718 13.8263C8.93949 14.0302 9.46714 14.1352 10 14.1352C11.0762 14.1352 12.1083 13.7076 12.8693 12.9467C13.6303 12.1857 14.0578 11.1536 14.0578 10.0774C14.0578 9.00122 13.6303 7.96912 12.8693 7.20814C12.1083 6.44717 11.0762 6.01965 10 6.01965ZM7.19234 10.0774C7.19234 9.33277 7.48815 8.61862 8.01469 8.09208C8.54123 7.56554 9.25537 7.26973 10 7.26973C10.7447 7.26973 11.4588 7.56554 11.9853 8.09208C12.5119 8.61862 12.8077 9.33277 12.8077 10.0774C12.8077 10.822 12.5119 11.5362 11.9853 12.0627C11.4588 12.5893 10.7447 12.8851 10 12.8851C9.25537 12.8851 8.54123 12.5893 8.01469 12.0627C7.48815 11.5362 7.19234 10.822 7.19234 10.0774Z" fill="white"/>
<path d="M12.2451 1.75562C11.5863 -0.482017 8.41365 -0.482017 7.75486 1.75562L7.63735 2.1544C7.59135 2.3106 7.51097 2.45452 7.40211 2.57562C7.29325 2.69672 7.15867 2.79193 7.00824 2.85426C6.85781 2.91659 6.69533 2.94446 6.53273 2.93584C6.37012 2.92722 6.2115 2.88232 6.0685 2.80444L5.70348 2.60443C3.65335 1.48936 1.41196 3.732 2.52828 5.78087L2.72705 6.1459C2.80493 6.2889 2.84983 6.44751 2.85845 6.61012C2.86707 6.77273 2.83919 6.9352 2.77686 7.08563C2.71453 7.23607 2.61933 7.37064 2.49823 7.4795C2.37713 7.58836 2.2332 7.66874 2.077 7.71475L1.67823 7.83225C-0.55941 8.49104 -0.55941 11.6637 1.67823 12.3225L2.077 12.44C2.2332 12.486 2.37713 12.5664 2.49823 12.6753C2.61933 12.7841 2.71453 12.9187 2.77686 13.0692C2.83919 13.2196 2.86707 13.3821 2.85845 13.5447C2.84983 13.7073 2.80493 13.8659 2.72705 14.0089L2.52703 14.3739C1.41196 16.424 3.65335 18.6667 5.70348 17.5491L6.0685 17.3503C6.2115 17.2725 6.37012 17.2276 6.53273 17.2189C6.69533 17.2103 6.85781 17.2382 7.00824 17.3005C7.15867 17.3629 7.29325 17.4581 7.40211 17.5792C7.51097 17.7003 7.59135 17.8442 7.63735 18.0004L7.75486 18.3992C8.41365 20.6368 11.5863 20.6368 12.2451 18.3992L12.3626 18.0004C12.4087 17.8442 12.489 17.7003 12.5979 17.5792C12.7067 17.4581 12.8413 17.3629 12.9918 17.3005C13.1422 17.2382 13.3047 17.2103 13.4673 17.2189C13.6299 17.2276 13.7885 17.2725 13.9315 17.3503L14.2965 17.5504C16.3466 18.6667 18.5893 16.4228 17.4717 14.3739L17.273 14.0089C17.1951 13.8659 17.1502 13.7073 17.1416 13.5447C17.1329 13.3821 17.1608 13.2196 17.2231 13.0692C17.2855 12.9187 17.3807 12.7841 17.5018 12.6753C17.6229 12.5664 17.7668 12.486 17.923 12.44L18.3218 12.3225C20.5594 11.6637 20.5594 8.49104 18.3218 7.83225L17.923 7.71475C17.7668 7.66874 17.6229 7.58836 17.5018 7.4795C17.3807 7.37064 17.2855 7.23607 17.2231 7.08563C17.1608 6.9352 17.1329 6.77273 17.1416 6.61012C17.1502 6.44751 17.1951 6.2889 17.273 6.1459L17.473 5.78087C18.5893 3.73075 16.3454 1.48936 14.2965 2.60568L13.9315 2.80444C13.7885 2.88232 13.6299 2.92722 13.4673 2.93584C13.3047 2.94446 13.1422 2.91659 12.9918 2.85426C12.8413 2.79193 12.7067 2.69672 12.5979 2.57562C12.489 2.45452 12.4087 2.3106 12.3626 2.1544L12.2451 1.75562ZM8.95368 2.10939C9.2612 1.06558 10.7388 1.06558 11.0463 2.10939L11.1638 2.50817C11.2626 2.8433 11.4351 3.15207 11.6688 3.41185C11.9024 3.67163 12.1912 3.87583 12.514 4.00949C12.8368 4.14314 13.1854 4.20286 13.5343 4.18426C13.8832 4.16566 14.2235 4.06922 14.5303 3.90201L14.8941 3.70199C15.8491 3.18321 16.8942 4.22703 16.3741 5.18334L16.1754 5.54836C16.0084 5.85516 15.9122 6.19543 15.8938 6.54424C15.8754 6.89305 15.9353 7.24155 16.0691 7.56422C16.2028 7.88688 16.4071 8.17553 16.6669 8.40901C16.9267 8.64249 17.2354 8.81489 17.5705 8.91357L17.968 9.03108C19.0118 9.3386 19.0118 10.8162 17.968 11.1237L17.5692 11.2412C17.2341 11.34 16.9253 11.5125 16.6655 11.7462C16.4058 11.9798 16.2016 12.2686 16.0679 12.5914C15.9343 12.9142 15.8745 13.2628 15.8931 13.6117C15.9117 13.9606 16.0082 14.3009 16.1754 14.6077L16.3754 14.9714C16.8942 15.9265 15.8504 16.9716 14.8941 16.4515L14.5303 16.2528C14.2234 16.0856 13.883 15.9892 13.5341 15.9707C13.1851 15.9521 12.8365 16.012 12.5136 16.1458C12.1908 16.2795 11.902 16.4839 11.6685 16.7438C11.4349 17.0037 11.2625 17.3126 11.1638 17.6479L11.0463 18.0454C10.7388 19.0892 9.2612 19.0892 8.95368 18.0454L8.83618 17.6466C8.73735 17.3117 8.56485 17.0031 8.33131 16.7434C8.09777 16.4838 7.8091 16.2796 7.48646 16.146C7.16381 16.0124 6.81535 15.9526 6.46662 15.9711C6.11788 15.9895 5.77769 16.0858 5.47097 16.2528L5.10594 16.4528C4.15088 16.9716 3.10582 15.9278 3.62585 14.9714L3.82461 14.6077C3.99206 14.3009 4.08869 13.9604 4.10742 13.6114C4.12614 13.2624 4.06647 12.9136 3.9328 12.5906C3.79913 12.2676 3.59484 11.9787 3.33493 11.745C3.07502 11.5113 2.76608 11.3387 2.43078 11.24L2.032 11.1225C0.988187 10.8149 0.988187 9.33735 2.032 9.02983L2.43078 8.91232C2.76556 8.81345 3.07399 8.64098 3.33351 8.40752C3.59303 8.17407 3.79707 7.88554 3.93069 7.56306C4.06431 7.24057 4.12413 6.89229 4.10578 6.5437C4.08742 6.19511 3.99136 5.85503 3.82461 5.54836L3.6246 5.18334C3.10582 4.22828 4.14963 3.18321 5.10594 3.70324L5.47097 3.90201C5.77769 4.06899 6.11788 4.16524 6.46662 4.18372C6.81535 4.20219 7.16381 4.14242 7.48646 4.00878C7.8091 3.87515 8.09777 3.67103 8.33131 3.41138C8.56485 3.15173 8.73735 2.84312 8.83618 2.50817L8.95368 2.10939Z" fill="white"/>
</svg>
